<svg width="10" height="11" viewBox="0 0 10 11" fill="none" xmlns="http://www.w3.org/2000/svg">
<path d="M3.24713 9.70005C2.95751 9.70005 2.71061 9.59694 2.50645 9.39074C2.30228 9.18453 2.2002 8.93661 2.2002 8.64699C2.2002 8.35736 2.3033 8.11047 2.50951 7.9063C2.71572 7.70213 2.96363 7.60005 3.25326 7.60005C3.54288 7.60005 3.78978 7.70315 3.99395 7.90936C4.19811 8.11557 4.3002 8.36349 4.3002 8.65311C4.3002 8.94274 4.19709 9.18963 3.99088 9.3938C3.78467 9.59797 3.53676 9.70005 3.24713 9.70005ZM6.74713 9.70005C6.45751 9.70005 6.21061 9.59694 6.00645 9.39074C5.80228 9.18453 5.7002 8.93661 5.7002 8.64699C5.7002 8.35736 5.8033 8.11047 6.00951 7.9063C6.21572 7.70213 6.46363 7.60005 6.75326 7.60005C7.04288 7.60005 7.28978 7.70315 7.49395 7.90936C7.69811 8.11557 7.8002 8.36349 7.8002 8.65311C7.8002 8.94274 7.69709 9.18963 7.49088 9.3938C7.28467 9.59797 7.03676 9.70005 6.74713 9.70005ZM3.24713 6.55005C2.95751 6.55005 2.71061 6.44694 2.50645 6.24074C2.30228 6.03453 2.2002 5.78661 2.2002 5.49699C2.2002 5.20736 2.3033 4.96047 2.50951 4.7563C2.71572 4.55213 2.96363 4.45005 3.25326 4.45005C3.54288 4.45005 3.78978 4.55315 3.99395 4.75936C4.19811 4.96557 4.3002 5.21349 4.3002 5.50311C4.3002 5.79274 4.19709 6.03963 3.99088 6.2438C3.78467 6.44797 3.53676 6.55005 3.24713 6.55005ZM6.74713 6.55005C6.45751 6.55005 6.21061 6.44694 6.00645 6.24074C5.80228 6.03453 5.7002 5.78661 5.7002 5.49699C5.7002 5.20736 5.8033 4.96047 6.00951 4.7563C6.21572 4.55213 6.46363 4.45005 6.75326 4.45005C7.04288 4.45005 7.28978 4.55315 7.49395 4.75936C7.69811 4.96557 7.8002 5.21349 7.8002 5.50311C7.8002 5.79274 7.69709 6.03963 7.49088 6.2438C7.28467 6.44797 7.03676 6.55005 6.74713 6.55005ZM3.24713 3.40005C2.95751 3.40005 2.71061 3.29694 2.50645 3.09074C2.30228 2.88453 2.2002 2.63661 2.2002 2.34699C2.2002 2.05736 2.3033 1.81047 2.50951 1.6063C2.71572 1.40213 2.96363 1.30005 3.25326 1.30005C3.54288 1.30005 3.78978 1.40315 3.99395 1.60936C4.19811 1.81557 4.3002 2.06349 4.3002 2.35311C4.3002 2.64274 4.19709 2.88963 3.99088 3.0938C3.78467 3.29797 3.53676 3.40005 3.24713 3.40005ZM6.74713 3.40005C6.45751 3.40005 6.21061 3.29694 6.00645 3.09074C5.80228 2.88453 5.7002 2.63661 5.7002 2.34699C5.7002 2.05736 5.8033 1.81047 6.00951 1.6063C6.21572 1.40213 6.46363 1.30005 6.75326 1.30005C7.04288 1.30005 7.28978 1.40315 7.49395 1.60936C7.69811 1.81557 7.8002 2.06349 7.8002 2.35311C7.8002 2.64274 7.69709 2.88963 7.49088 3.0938C7.28467 3.29797 7.03676 3.40005 6.74713 3.40005Z" fill="#555555"/>
</svg>
