<svg width="16" height="17" viewBox="0 0 16 17" fill="none" xmlns="http://www.w3.org/2000/svg">
<g clip-path="url(#clip0_664_6250)">
<path fill-rule="evenodd" clip-rule="evenodd" d="M12.6667 9.07998C12.6667 8.76665 12.44 8.51331 12.1333 8.42665C11.2867 8.19331 10.6667 7.41998 10.6667 6.49998V3.16665H11.3333C11.7 3.16665 12 2.86665 12 2.49998C12 2.13331 11.7 1.83331 11.3333 1.83331H4.66668C4.30001 1.83331 4.00001 2.13331 4.00001 2.49998C4.00001 2.86665 4.30001 3.16665 4.66668 3.16665H5.33334V6.49998C5.33334 7.41998 4.71334 8.19331 3.86668 8.42665C3.56001 8.51331 3.33334 8.76665 3.33334 9.07998V9.16665C3.33334 9.53331 3.63334 9.83331 4.00001 9.83331H7.32001L7.33334 14.5C7.33334 14.8666 7.63334 15.1666 8.00001 15.1666C8.36668 15.1666 8.66668 14.8666 8.66668 14.5L8.65334 9.83331H12C12.3667 9.83331 12.6667 9.53331 12.6667 9.16665V9.07998Z" fill="#E54C65"/>
</g>
<defs>
<clipPath id="clip0_664_6250">
<rect width="16" height="16" fill="white" transform="translate(0 0.5)"/>
</clipPath>
</defs>
</svg>
